<svg width="30" height="30" viewBox="0 0 30 30" fill="none" xmlns="http://www.w3.org/2000/svg">
<path d="M14.9998 10.0606L19.1893 14.2501L8.24999 14.2501C8.2241 14.2501 8.19853 14.2515 8.17331 14.254C7.79512 14.2924 7.49999 14.6118 7.49999 15.0001C7.49999 15.4143 7.83578 15.7501 8.24999 15.7501L19.1893 15.7501L15.0001 19.9393C14.7073 20.2322 14.7073 20.7071 15.0001 20.9999C15.2931 21.2928 15.768 21.2928 16.0608 20.9999L21.5304 15.5305C21.8232 15.2376 21.8232 14.7627 21.5304 14.4697L16.0605 8.99999C15.7675 8.70704 15.2926 8.70704 14.9998 8.99999C14.7069 9.29279 14.7069 9.76769 14.9998 10.0606Z" fill="#E21BCE"/>
<path fill-rule="evenodd" clip-rule="evenodd" d="M15 30C23.2842 30 30 23.2843 30 15C30 6.71579 23.2842 -1.01776e-06 15 -6.55644e-07C6.71572 -2.93526e-07 -1.01779e-06 6.71579 -6.55672e-07 15C-2.93554e-07 23.2843 6.71572 30 15 30ZM28.5 15C28.5 7.54424 22.4558 1.5 15 1.5C7.54415 1.5 1.5 7.54424 1.5 15C1.5 22.4558 7.54415 28.5 15 28.5C22.4558 28.5 28.5 22.4558 28.5 15Z" fill="#E21BCE"/>
</svg>
