<svg width="14" height="21" viewBox="0 0 14 21" fill="none" xmlns="http://www.w3.org/2000/svg">
<path d="M0.238358 19.8937L12.0353 10.5L0.238358 1.10628C0.078735 0.979157 -0.000725981 0.812378 6.46049e-06 0.645768C0.000185502 0.605058 0.0051491 0.564375 0.0148987 0.524274C0.0422106 0.411944 0.107072 0.304265 0.209483 0.213994C0.218794 0.20579 0.22843 0.197715 0.238358 0.189809C0.476727 -7.91833e-07 0.826167 -0.0474496 1.12007 0.0474489C1.21804 0.079086 1.30982 0.126535 1.38928 0.189809L13.7617 10.0417C13.9142 10.1633 14 10.3282 14 10.5C14 10.6719 13.9142 10.8367 13.7617 10.9582L1.38928 20.8102C1.07147 21.0633 0.556189 21.0633 0.238358 20.8102C0.0397203 20.652 -0.0347608 20.4325 0.0148987 20.2282C0.0447009 20.1056 0.119182 19.9887 0.238358 19.8937Z" fill="#E21BCE"/>
</svg>
