<svg width="14" height="22" viewBox="0 0 14 22" fill="none" xmlns="http://www.w3.org/2000/svg">
<path d="M13.7616 1.72446L1.96473 11.1181L13.7616 20.5119C13.9213 20.639 14.0007 20.8058 14 20.9724C13.9998 21.0131 13.9949 21.0538 13.9851 21.0939C13.9578 21.2062 13.8929 21.3139 13.7905 21.4042C13.7812 21.4124 13.7716 21.4204 13.7616 21.4284C13.5233 21.6182 13.1738 21.6656 12.8799 21.5707C12.782 21.5391 12.6902 21.4916 12.6107 21.4284L0.238287 11.5764C0.0857765 11.4549 -8.38321e-07 11.29 -8.5227e-07 11.1181C-8.6622e-07 10.9463 0.0857764 10.7814 0.238287 10.66L12.6107 0.808006C12.9285 0.554882 13.4438 0.554882 13.7616 0.808006C13.9603 0.966125 14.0348 1.18568 13.9851 1.38994C13.9553 1.51255 13.8808 1.62946 13.7616 1.72446Z" fill="#E21BCE"/>
</svg>
