<svg width="20" height="20" viewBox="0 0 20 20" fill="none" xmlns="http://www.w3.org/2000/svg">
<path d="M9.99989 6.70709L12.7929 9.50009L5.49999 9.50009C5.48273 9.50009 5.46568 9.50099 5.44887 9.50269C5.19674 9.52829 4.99999 9.74119 4.99999 10.0001C4.99999 10.2762 5.22385 10.5001 5.49999 10.5001L12.7929 10.5001L10.0001 13.2929C9.80489 13.4881 9.80489 13.8047 10.0001 14C10.1954 14.1952 10.512 14.1952 10.7072 14L14.3536 10.3537C14.5488 10.1584 14.5488 9.84179 14.3536 9.64649L10.707 5.99999C10.5117 5.80469 10.1951 5.80469 9.99989 5.99999C9.80459 6.19519 9.80459 6.51179 9.99989 6.70709Z" fill="#E21BCE"/>
<path fill-rule="evenodd" clip-rule="evenodd" d="M10 20C15.5228 20 20 15.5228 20 9.99999C20 4.47719 15.5228 -6.78505e-07 10 -4.37096e-07C4.47714 -1.95684e-07 -6.78523e-07 4.4772 -4.37114e-07 9.99999C-1.95703e-07 15.5228 4.47715 20 10 20ZM19 9.99999C19 5.02949 14.9705 0.999998 10 0.999999C5.02943 0.999999 0.999998 5.02949 0.999999 9.99999C0.999999 14.9706 5.02943 19 10 19C14.9705 19 19 14.9706 19 9.99999Z" fill="#E21BCE"/>
</svg>
