<svg width="21" height="20" viewBox="0 0 21 20" fill="none" xmlns="http://www.w3.org/2000/svg">
<path d="M7.67146 6.4645L12.8283 11.6213V7.67144C12.8283 7.39529 13.0522 7.17144 13.3283 7.17144C13.6045 7.17144 13.8283 7.3953 13.8283 7.67144V12.8284C13.8283 13.1045 13.6045 13.3284 13.3283 13.3284H8.17163C7.89549 13.3284 7.67163 13.1045 7.67163 12.8284C7.67163 12.5523 7.89549 12.3284 8.17163 12.3284H12.1212L6.96435 7.17161C6.76909 6.97634 6.76909 6.65976 6.96435 6.4645C7.15962 6.26924 7.4762 6.26924 7.67146 6.4645Z" fill="#E21BCE"/>
<path fill-rule="evenodd" clip-rule="evenodd" d="M17.5711 17.0711C13.6659 20.9763 7.33417 20.9763 3.42893 17.0711C-0.47631 13.1659 -0.47631 6.83417 3.42893 2.92893C7.33417 -0.97631 13.6659 -0.97631 17.5711 2.92893C21.4763 6.83417 21.4763 13.1659 17.5711 17.0711ZM16.864 3.63604C20.3787 7.15075 20.3787 12.8493 16.864 16.364C13.3493 19.8787 7.65076 19.8787 4.13604 16.364C0.62132 12.8493 0.62132 7.15075 4.13604 3.63604C7.65076 0.12132 13.3493 0.12132 16.864 3.63604Z" fill="#E21BCE"/>
</svg>
