<svg width="30" height="24" viewBox="0 0 30 24" fill="none" xmlns="http://www.w3.org/2000/svg">
<path fill-rule="evenodd" clip-rule="evenodd" d="M3 24C1.34314 24 0 22.8458 0 21.4222V8.73214C0 7.81127 0.571665 6.96034 1.49971 6.49982L14.2498 0.172757C14.7141 -0.0575857 15.2859 -0.0575857 15.7502 0.172757L28.5003 6.49981C29.4284 6.96034 30 7.81127 30 8.73214V21.4222C30 22.8458 28.6569 24 27 24H3ZM15.7502 15.8036L28.5 9.47679V21.4222C28.5 22.134 27.8284 22.7111 27 22.7111H3C2.17158 22.7111 1.5 22.134 1.5 21.4222V9.47679L14.2498 15.8036C14.7141 16.0341 15.2859 16.0341 15.7502 15.8036ZM1.70076 8.08799L15 14.6876L28.2993 8.08799C28.1698 7.89518 27.9822 7.73116 27.7501 7.61597L15 1.28892L2.24985 7.61597C2.01774 7.73116 1.83023 7.89518 1.70076 8.08799Z" fill="black"/>
</svg>
