<svg width="24" height="24" viewBox="0 0 24 24" fill="none" xmlns="http://www.w3.org/2000/svg">
<path fill-rule="evenodd" clip-rule="evenodd" d="M22.8056 23.2104C23.5595 22.5652 23.9954 21.624 24 20.6318V17.6134C24 16.5615 23.315 15.6322 22.3103 15.3209L17.7269 13.9008C16.977 13.6685 16.1609 13.8177 15.5416 14.3002L13.6794 15.751C12.6425 15.0246 11.6542 14.1983 10.7279 13.2721C9.80172 12.3459 8.9754 11.3575 8.24903 10.3206L9.69108 8.48929C10.1788 7.86982 10.3312 7.05026 10.0987 6.29684L8.67784 1.69233C8.36737 0.686245 7.43742 0 6.38454 0H3.36828C2.37601 0.00457201 1.43479 0.440521 0.789563 1.19439C0.256283 1.81748 -0.0455292 2.61237 0.00560278 3.43091C0.327911 8.5899 2.4599 13.6564 6.40175 17.5983C10.3436 21.5402 15.4102 23.6721 20.5691 23.9944C21.3876 24.0455 22.1825 23.7437 22.8056 23.2104ZM7.30623 9.57819C6.97874 9.9941 6.96246 10.5755 7.26616 11.0091C8.03239 12.103 8.9036 13.1448 9.87936 14.1207C10.8552 15.0964 11.897 15.9676 12.991 16.7339C13.4227 17.0363 14.0012 17.0215 14.417 16.6975L16.2791 15.2467C16.5888 15.0055 16.9968 14.9309 17.3718 15.0471L21.9552 16.4671C22.4575 16.6228 22.8 17.0874 22.8 17.6134V20.6288C22.7963 21.2714 22.5137 21.8808 22.0253 22.2988C21.6108 22.6536 21.1156 22.8262 20.644 22.7968C15.7655 22.492 10.9775 20.477 7.25028 16.7497C3.52304 13.0225 1.50805 8.23453 1.20326 3.35608C1.1738 2.88448 1.34642 2.38925 1.70124 1.97468C2.1192 1.48633 2.72866 1.20367 3.37135 1.2H6.38454C6.91098 1.2 7.37595 1.54313 7.53119 2.04616L8.95207 6.65069C9.06832 7.02739 8.99212 7.43717 8.74823 7.7469L7.30623 9.57819Z" fill="black"/>
</svg>
