<svg width="30" height="24" viewBox="0 0 30 24" fill="none" xmlns="http://www.w3.org/2000/svg">
<path fill-rule="evenodd" clip-rule="evenodd" d="M8.74999 10.5882C11.3388 10.5882 13.4375 8.21798 13.4375 5.29412C13.4375 2.37025 11.3388 0 8.74999 0C6.16116 0 4.0625 2.37025 4.0625 5.29412C4.0625 8.21798 6.16116 10.5882 8.74999 10.5882ZM8.74999 9.17647C10.6485 9.17647 12.1875 7.43828 12.1875 5.29412C12.1875 3.14996 10.6485 1.41176 8.74999 1.41176C6.85152 1.41176 5.31249 3.14996 5.31249 5.29412C5.31249 7.43828 6.85152 9.17647 8.74999 9.17647Z" fill="black"/>
<path fill-rule="evenodd" clip-rule="evenodd" d="M25.9375 5.29412C25.9375 8.21798 23.8388 10.5882 21.25 10.5882C18.6611 10.5882 16.5625 8.21798 16.5625 5.29412C16.5625 2.37025 18.6611 0 21.25 0C23.8388 0 25.9375 2.37025 25.9375 5.29412ZM24.6875 5.29412C24.6875 7.43828 23.1485 9.17647 21.25 9.17647C19.3515 9.17647 17.8125 7.43828 17.8125 5.29412C17.8125 3.14996 19.3515 1.41176 21.25 1.41176C23.1485 1.41176 24.6875 3.14996 24.6875 5.29412Z" fill="black"/>
<path d="M21.25 14.1176C19.7984 14.1176 18.4215 14.4778 17.1855 15.124C16.8589 14.7702 16.5148 14.4367 16.1548 14.1253C16.345 14.012 16.5385 13.9049 16.7351 13.8041C18.1115 13.0986 19.6401 12.7059 21.25 12.7059C21.4549 12.7059 21.6584 12.7122 21.8605 12.7248C24.892 12.9131 27.5945 14.4959 29.4739 16.9145C29.5185 16.972 29.5602 17.0317 29.599 17.0934C29.8707 17.5251 30 18.0531 30 18.5884V21.1765C30 22.7359 28.8808 24 27.5 24H17.7951C17.8355 23.949 17.8748 23.8971 17.9129 23.844C18.1801 23.4723 18.3926 23.0485 18.5366 22.5882H27.5C27.5028 22.5882 27.5054 22.5882 27.5081 22.5882C28.1948 22.5833 28.75 21.9531 28.75 21.1765V18.5884C28.75 18.2608 28.6597 18.0071 28.5344 17.8457C26.757 15.5582 24.1533 14.1176 21.25 14.1176Z" fill="black"/>
<path fill-rule="evenodd" clip-rule="evenodd" d="M17.5 18.5884C17.5 17.9766 17.3311 17.3743 16.9739 16.9145C14.9692 14.3345 12.028 12.7059 8.74999 12.7059C5.47197 12.7059 2.53076 14.3345 0.526134 16.9145C0.16887 17.3743 0 17.9766 0 18.5884V21.1765C0 22.7359 1.11929 24 2.5 24H15C16.3807 24 17.5 22.7359 17.5 21.1765V18.5884ZM15 22.5882C15.6904 22.5882 16.25 21.9562 16.25 21.1765V18.5884C16.25 18.2608 16.1597 18.0071 16.0344 17.8457C14.257 15.5582 11.6532 14.1176 8.74999 14.1176C5.84681 14.1176 3.24303 15.5582 1.46566 17.8457C1.34024 18.0071 1.25 18.2608 1.25 18.5884V21.1765C1.25 21.9562 1.80965 22.5882 2.5 22.5882H15Z" fill="black"/>
</svg>
